<svg xmlns="http://www.w3.org/2000/svg" version="1.1" xmlns:xlink="http://www.w3.org/1999/xlink" width="512"
    height="512" x="0" y="0" viewBox="0 0 512 512" style="enable-background:new 0 0 512 512" xml:space="preserve"
    class="">
    <g>
        <path fill="#f9d11f"
            d="m459.125 360.118-38.749 13.11-384.652 130.12c-16.751 5.664-32.732-10.317-27.061-27.061l1.025-3.033L138.813 91.738l13.11-38.749 49.497-7.071 160.732 104.135 104.044 160.568-2.737 19.141z"
            opacity="1" data-original="#f9d11f"></path>
        <path fill="#ffa402"
            d="m459.125 360.118-38.749 13.11-384.652 130.12c-16.751 5.664-32.732-10.317-27.061-27.061l1.025-3.033a40.86 40.86 0 0 0 29.444 1.174L463.46 329.762z"
            opacity="1" data-original="#ffa402"></path>
        <path fill="#fdeda5"
            d="m459.125 360.118-38.749 13.11a309.386 309.386 0 0 0-7.41-26.248c-14.623-44.335-42.957-97.347-96.739-151.129-64.877-64.848-128.651-92.687-177.413-104.113l13.11-38.749 49.497-7.071 160.732 104.135 104.044 160.568-2.737 19.141z"
            opacity="1" data-original="#fdeda5"></path>
        <path fill="#fbdf63" d="m459.125 360.118-38.749 13.11a309.386 309.386 0 0 0-7.41-26.248l50.494-17.218z"
            opacity="1" data-original="#fbdf63"></path>
        <g fill="#ed2061">
            <ellipse cx="190.216" cy="198.656" rx="39.734" ry="39.724" fill="#ed2061" opacity="1"
                data-original="#ed2061"></ellipse>
            <ellipse cx="164.787" cy="347.131" rx="39.734" ry="39.724" fill="#ed2061" opacity="1"
                data-original="#ed2061"></ellipse>
            <path
                d="m353.462 395.862-67.451 22.648a39.579 39.579 0 0 1-11.469-24.338c-1.068-11.377 2.751-23.129 11.462-31.841 15.521-15.507 40.68-15.507 56.194.007a39.617 39.617 0 0 1 5.515 6.887c5.092 8.047 7.008 17.516 5.749 26.637z"
                fill="#ed2061" opacity="1" data-original="#ed2061"></path>
        </g>
        <g fill="#68c044">
            <path
                d="M98.109 436.472c-10.325 10.322-29.912 7.476-29.912 7.476s-2.847-19.582 7.478-29.904 29.912-7.476 29.912-7.476 2.847 19.582-7.478 29.904zM278.301 290.674c7.698 12.404.459 30.821.459 30.821s-19.72-1.695-27.418-14.099-.459-30.821-.459-30.821 19.72 1.695 27.418 14.099z"
                fill="#68c044" opacity="1" data-original="#68c044" class=""></path>
        </g>
        <path fill="#f79e60"
            d="M487.558 377.294c-.29.078-.587.148-.891.212-7.7 1.619-15.295-.926-20.471-6.102a22.134 22.134 0 0 1-6.074-11.236c-9.687-46.16-37.363-117.308-114.184-194.142-76.84-76.798-148.018-104.46-194.192-114.147-12.12-2.546-19.884-14.425-17.338-26.545.064-.29.134-.587.198-.877 2.92-11.604 14.524-18.95 26.347-16.461 52.135 10.939 132.052 41.726 216.693 126.324 84.634 84.633 115.428 164.528 126.367 216.649 2.474 11.808-4.844 23.411-16.455 26.325z"
            opacity="1" data-original="#f79e60"></path>
        <path fill="#d77d41"
            d="M487.558 377.294c.806-3.196.912-6.625.191-10.062-10.939-52.12-41.733-132.016-126.367-216.649C276.741 65.986 196.824 35.198 144.689 24.26a22.217 22.217 0 0 0-10.083.198c2.92-11.604 14.524-18.95 26.347-16.461 52.135 10.939 132.052 41.726 216.693 126.324 84.634 84.633 115.428 164.528 126.367 216.649 2.474 11.807-4.844 23.41-16.455 26.324z"
            opacity="1" data-original="#d77d41"></path>
        <path fill="#c71e54"
            d="m353.462 395.862-67.451 22.648a39.579 39.579 0 0 1-11.469-24.338l73.171-24.946c5.092 8.046 7.008 17.515 5.749 26.636z"
            opacity="1" data-original="#c71e54"></path>
        <path
            d="M511.352 349.424c-11.145-53.118-42.469-134.475-128.404-220.416C296.993 43.1 215.617 11.784 162.488.642c-16.148-3.393-32.044 6.991-35.432 23.138-1.641 7.823-.137 15.815 4.234 22.507a29.74 29.74 0 0 0 11.482 10.309L54.277 318.077a7.5 7.5 0 1 0 14.208 4.808l75.208-222.221c59.649 15.388 115.88 49.165 167.23 100.484 19.415 19.418 36.576 39.898 51.005 60.872a7.493 7.493 0 0 0 10.43 1.928 7.5 7.5 0 0 0 1.928-10.43c-14.923-21.692-32.641-42.848-52.664-62.883l-.028-.031-.01-.01-.126-.126-.052-.052-.023-.02c-52.932-52.858-111.052-87.798-172.87-103.973l8.677-25.639c11.382 2.711 22.954 6.234 34.501 10.531a7.501 7.501 0 0 0 5.231-14.059c-14.617-5.439-29.3-9.722-43.644-12.731a14.82 14.82 0 0 1-9.431-6.443 14.816 14.816 0 0 1-2.111-11.222c1.689-8.052 9.619-13.228 17.672-11.538 51.137 10.725 129.59 40.995 212.935 124.293 83.324 83.331 113.602 161.764 124.328 212.889.819 3.9.069 7.884-2.11 11.221a14.832 14.832 0 0 1-9.432 6.444 14.905 14.905 0 0 1-13.636-4.067 14.84 14.84 0 0 1-4.036-7.474c-9.896-47.161-38.092-119.778-116.223-197.914-38.211-38.191-78.768-68.068-120.544-88.802-3.711-1.845-8.211-.326-10.052 3.384s-.326 8.211 3.384 10.052c40.316 20.009 79.549 48.936 116.607 85.973 71.808 71.812 99.882 138.351 110.616 183.546l-25.575 8.651c-7.079-26.948-17.929-53.62-32.335-79.398a7.498 7.498 0 0 0-10.206-2.888 7.5 7.5 0 0 0-2.888 10.206c13.969 24.993 24.438 50.831 31.187 76.897l-50.353 17.033c-1.113-10.617-5.798-20.564-13.576-28.34-18.416-18.413-48.383-18.413-66.799 0-8.922 8.92-13.835 20.78-13.835 33.395 0 8.779 2.386 17.189 6.841 24.501L33.307 496.247c-5.104 1.726-10.424.483-14.232-3.326-3.806-3.807-5.048-9.122-3.323-14.221l41.67-123.126a7.5 7.5 0 1 0-14.209-4.809L1.544 473.89c-3.542 10.466-.889 21.822 6.923 29.636C13.994 509.054 21.291 512 28.794 512a29.117 29.117 0 0 0 9.321-1.544l417.361-141.183a29.739 29.739 0 0 0 5.414 7.437c5.693 5.691 13.289 8.783 21.14 8.783 2.052 0 4.123-.212 6.18-.643 7.823-1.641 14.539-6.23 18.911-12.92 4.37-6.691 5.873-14.685 4.231-22.506zM288.45 409.938c-4.268-5.583-6.585-12.369-6.585-19.513 0-8.608 3.353-16.7 9.441-22.787 12.569-12.565 33.019-12.565 45.588 0 6.125 6.124 9.437 14.221 9.435 22.721z"
            fill="#000000" opacity="1" data-original="#000000"></path>
        <path
            d="M156.81 165.256c-8.922 8.92-13.836 20.78-13.836 33.395s4.914 24.474 13.836 33.394c9.208 9.206 21.304 13.81 33.4 13.81s24.191-4.604 33.4-13.81c8.922-8.919 13.835-20.779 13.835-33.394s-4.913-24.474-13.835-33.395c-18.417-18.413-48.384-18.413-66.8 0zm56.194 56.18c-12.568 12.565-33.018 12.565-45.588 0-6.088-6.086-9.441-14.178-9.441-22.786s3.353-16.7 9.441-22.787c6.285-6.283 14.538-9.424 22.794-9.424 8.254 0 16.511 3.143 22.794 9.424 6.088 6.087 9.441 14.179 9.441 22.787s-3.353 16.7-9.441 22.786zM131.379 380.525c9.208 9.206 21.304 13.81 33.4 13.81s24.192-4.604 33.4-13.81a7.5 7.5 0 0 0-10.606-10.608c-12.569 12.566-33.02 12.564-45.588 0-6.088-6.087-9.441-14.179-9.441-22.787 0-8.607 3.353-16.699 9.441-22.786 12.568-12.564 33.02-12.564 45.588 0 5.132 5.131 8.312 11.638 9.197 18.818.507 4.111 4.247 7.043 8.362 6.527a7.501 7.501 0 0 0 6.527-8.361c-1.298-10.533-5.959-20.073-13.479-27.592-18.417-18.413-48.383-18.412-66.8 0-8.922 8.92-13.835 20.78-13.835 33.394-.001 12.615 4.912 24.475 13.834 33.395zM67.11 451.374c.415.061 3.185.439 7.175.439 1.703 0 3.628-.068 5.686-.262 9.857-.922 17.959-4.301 23.432-9.773s8.853-13.573 9.776-23.428c.644-6.879-.093-12.268-.179-12.86a7.501 7.501 0 0 0-6.344-6.343c-.591-.086-5.982-.824-12.861-.178-9.857.922-17.959 4.301-23.432 9.773s-8.854 13.573-9.776 23.428c-.644 6.879.092 12.268.178 12.86a7.503 7.503 0 0 0 6.345 6.344zm13.86-32.023c4.303-4.302 11.796-5.511 17.471-5.644-.133 5.679-1.343 13.165-5.643 17.464-4.303 4.302-11.796 5.511-17.472 5.644.133-5.679 1.344-13.165 5.644-17.464zM251.52 269.1a7.493 7.493 0 0 0-7.622 4.729c-.219.557-2.165 5.636-3.107 12.48-1.35 9.806.093 18.464 4.173 25.041 4.08 6.574 11.198 11.713 20.586 14.858 6.552 2.195 11.967 2.708 12.563 2.76a7.5 7.5 0 0 0 7.623-4.73c.219-.557 2.165-5.635 3.107-12.48 1.351-9.806-.093-18.464-4.173-25.041-4.08-6.574-11.199-11.712-20.586-14.858-6.553-2.196-11.968-2.707-12.564-2.759zm20.403 25.527c3.207 5.167 2.675 12.737 1.511 18.29-5.502-1.425-12.519-4.31-15.725-9.478-3.207-5.167-2.675-12.736-1.511-18.289 5.502 1.424 12.519 4.31 15.725 9.477zM127.299 251.185a7.5 7.5 0 0 0-2.264 10.362l11.443 17.839a7.496 7.496 0 0 0 10.363 2.263 7.5 7.5 0 0 0 2.264-10.362l-11.443-17.839a7.502 7.502 0 0 0-10.363-2.263zM283.281 249.041l16.096 13.79a7.47 7.47 0 0 0 4.877 1.805 7.501 7.501 0 0 0 4.884-13.196l-16.096-13.79a7.499 7.499 0 0 0-10.575.815 7.499 7.499 0 0 0 .814 10.576zM229.687 374.276l-2.018 19.335a7.502 7.502 0 0 0 7.469 8.28 7.5 7.5 0 0 0 7.45-6.723l2.018-19.335a7.502 7.502 0 0 0-6.681-8.239 7.502 7.502 0 0 0-8.238 6.682z"
            fill="#000000" opacity="1" data-original="#000000"></path>
    </g>
</svg>